<?xml version="1.0" encoding="UTF-8"?>
<svg width="560px" height="400px" viewBox="0 0 560 400" version="1.1" xmlns="http://www.w3.org/2000/svg" xmlns:xlink="http://www.w3.org/1999/xlink">
    <!-- Generator: Sketch 63.1 (92452) - https://sketch.com -->
    <title>Artboard</title>
    <desc>Created with Sketch.</desc>
    <g id="Artboard" stroke="none" stroke-width="1" fill="none" fill-rule="evenodd">
        <g id="Group-2" transform="translate(22.000000, 21.000000)" fill="#FFFFFF">
            <g id="Group-30" transform="translate(0.000000, 60.000000)">
                <path d="M506.674773,106.99243 C506.464591,107.314677 506.249521,107.683309 505.991682,108.029969 C504.241794,110.391897 503.229987,113.015041 502.864613,115.855458 C502.127754,121.582675 502.801069,129.692572 503.712673,135.352654 C503.740779,135.511337 504.040166,135.627297 504.316335,135.849453 C506.99249,131.414887 509.269055,124.498771 510.564363,119.662617 C511.073932,117.753544 511.329328,115.735835 511.31222,113.769393 C511.282892,110.889916 510.091453,108.484045 506.674773,106.99243 M355.798287,265.451554 C356.425167,265.331931 356.695227,265.311181 356.937181,265.223295 C357.516403,265.015787 358.095626,264.799735 358.649187,264.545843 C369.308593,259.621803 378.607926,253.124365 385.452284,243.913456 C388.229864,240.178314 390.764268,236.277166 393.262013,232.368694 C397.24814,226.131251 399.942625,219.401892 401.5251,212.292916 C402.652995,207.22362 403.207778,202.12625 401.558094,197.056955 C400.136921,192.689524 397.031848,189.828357 392.328414,188.547911 C387.83394,187.324835 383.36635,187.731306 378.964747,188.973912 C356.246757,195.387127 343.409767,216.508988 345.958835,238.244829 C346.845999,245.799336 349.440281,252.935166 352.73965,259.842738 C353.636589,261.723735 354.735157,263.515627 355.798287,265.451554 M492.25042,148.735692 C491.585658,141.057901 490.76937,133.393536 490.170595,125.712082 C489.84799,121.558263 490.289128,117.430076 491.732297,113.444704 C493.589719,108.315598 499.06545,103.544137 506.421822,104.034832 C510.401838,104.29971 513.230742,106.153854 514.099576,109.779138 C514.533382,111.58934 514.678798,113.627799 514.24988,115.412367 C513.460476,118.709301 512.35091,121.969616 511.003057,125.107868 C509.657647,128.253443 508.026293,133.760947 506.206752,136.69047 C504.868674,138.847331 504.591283,140.871143 505.147287,143.279456 C507.462956,153.317955 509.624654,160.9457 511.841341,171.00495 C515.295903,186.673016 516.622982,202.507088 515.729709,218.468107 C514.863319,233.905473 509.492679,247.943991 500.049151,260.652018 C493.727804,269.15618 486.636604,276.963359 477.463136,282.912732 C465.768705,290.498976 452.733753,294.772418 438.624673,296.12244 C426.144504,297.312558 399.967064,298.414791 384.017669,291.383936 C374.488603,287.776961 366.258509,282.387859 359.279733,275.37043 C357.961207,274.044821 356.729443,273.710367 354.874464,273.993555 C344.003653,275.656059 333.163393,275.700002 322.36468,273.342956 C314.211572,271.56205 307.080047,268.039299 301.049533,262.6563 C297.137947,259.166506 293.413326,255.491175 289.628828,251.875655 C288.70256,250.989475 287.869164,250.01907 287.283832,249.398988 L281.558815,243.299477 C275.043172,235.231082 268.597182,227.107758 261.96545,219.121146 C256.736561,212.81901 250.88568,207.038084 244.189182,202.050571 C243.539084,201.569641 242.835219,201.146081 242.015265,200.601678 C240.110184,199.179638 237.501239,197.337701 237.501239,197.337701 C227.160771,190.45088 215.670413,186.135937 203.030163,185.282713 C190.09908,184.40996 177.815651,186.990381 166.556248,193.287635 C155.596232,199.418883 147.598317,208.142758 141.136441,218.247172 C135.719366,226.718376 132.467654,235.865812 131.866436,245.715112 C131.012266,259.681614 135.743806,271.812281 146.265127,281.869089 C149.470403,284.934103 153.236572,287.23622 157.49398,288.83281 C160.808014,290.075416 164.201476,290.383016 167.659703,289.524909 C169.366822,289.100129 171.135039,288.707084 172.694296,287.964938 C182.893013,283.114136 189.749591,275.634088 192.368313,265.13785 C193.635515,260.061231 192.925539,254.985832 189.974437,250.489014 C185.253895,243.295815 180.671438,243.185958 174.524835,247.738925 C171.551737,249.94217 169.872725,252.760615 169.606331,256.216232 C169.372931,259.265377 169.289836,262.354804 169.50735,265.400287 C169.662543,267.538839 168.770491,268.923038 167.056041,269.998418 C164.246689,271.757352 158.102531,271.596228 155.334727,269.712789 C153.88667,268.730178 152.885862,267.441188 153.381989,265.677371 C154.32903,262.316964 155.234524,258.935806 156.43696,255.652299 C158.632874,249.656542 163.614921,246.17285 169.486576,243.580223 C173.58757,241.770021 177.875528,240.994918 182.413994,241.323269 C187.659991,241.704107 191.757318,243.917118 194.494573,248.066055 C198.666442,254.386501 199.689246,261.287969 197.644859,268.398166 C195.330413,276.458016 190.513334,283.173948 183.654312,288.520327 C177.783879,293.096486 170.80388,295.248465 163.273986,295.531652 C151.577112,295.96986 140.665976,293.214888 131.111247,286.877353 C116.22376,276.998757 108.482463,260.742345 113.551271,241.744388 C116.66612,230.0739 122.725961,219.923103 130.899843,210.741489 C140.811392,199.60686 152.789324,191.206453 167.427526,186.228705 C174.477178,183.832599 181.785891,182.557036 189.224136,181.874701 C202.195545,180.682141 214.718484,182.498446 226.730631,187.14296 C230.651993,188.658989 234.35584,190.663271 238.142783,192.468589 C241.542355,194.569301 245.778989,197.35601 245.778989,197.35601 C254.605413,203.488479 262.124309,210.855008 268.881906,218.909976 C274.465171,225.563656 279.938458,232.301559 285.467956,238.99796 C286.21337,239.903671 287.005218,240.775204 287.815397,241.706548 L293.622286,247.736483 C300.174589,254.189979 306.973734,260.387141 315.43356,264.663024 C323.178524,268.582481 331.585806,269.554107 340.222821,268.798534 C344.078195,268.461639 347.887133,267.612077 351.955133,266.957817 C351.565319,266.097269 351.378355,265.577279 351.100963,265.093908 C346.676142,257.353864 343.397547,249.19148 342.258654,240.487134 C339.792681,221.710112 346.024823,205.951719 362.128188,194.115225 C368.643831,189.324234 376.187167,186.338562 384.555344,185.696508 C393.730035,184.992202 402.11532,186.823154 408.457441,193.56716 C413.24397,198.659648 414.809338,204.911739 415.089173,211.532461 C415.410556,219.140676 413.621565,226.3412 410.327084,233.249992 C405.852161,242.637893 400.46197,251.449654 391.849394,258.157041 C383.442113,264.709408 374.272311,269.94593 363.513923,272.425039 C363.098447,272.52269 362.695191,272.652077 362.023097,272.838834 C362.546108,273.489433 362.895597,274.032615 363.355065,274.480588 C376.093074,286.899324 396.241221,293.333289 414.648035,293.52615 C429.663831,293.686053 456.906844,289.363786 468.472966,280.367709 C476.115283,274.419556 481.377166,266.757633 485.507487,258.3853 C489.20889,250.879618 491.210508,242.895446 493.016607,234.86245 C496.441841,219.622827 497.955885,204.204991 497.245909,188.654106 C496.918416,181.469451 495.843066,174.311649 495.004782,167.150186 C494.57342,163.449222 493.924544,159.767788 493.353876,156.076589 C493.257339,155.440638 493.066708,154.816894 492.828421,153.79034" id="Fill-1"></path>
                <g id="Group-29">
                    <path d="M300.430013,91.4085556 C295.477785,88.4483333 290.909508,89.3955556 288.002978,93.9886667 C286.895147,95.7401111 285.92182,97.6638889 285.338557,99.6414444 C283.489726,105.904111 281.648231,112.182667 280.199246,118.544333 C278.941013,124.084667 278.700127,129.769222 279.422785,135.446444 C280.205359,141.590556 283.838216,143.276 288.827127,139.635 C290.992656,138.054667 292.768122,135.951222 294.819934,134.198556 C296.621077,132.658556 297.168879,130.799556 297.313166,128.467556 C297.804721,120.554889 298.521265,112.655667 299.187676,104.754 C299.563067,100.333222 300.008156,95.9173333 300.430013,91.4085556 M302.610216,73.4687778 C302.777736,72.8698889 302.955038,72.4726667 302.991721,72.0632222 C303.398904,67.4664444 303.925919,62.8745556 304.144795,58.2667778 C304.57032,49.3225556 305.661033,40.3917778 304.516518,31.4072222 C303.995617,27.3103333 303.206929,23.3124444 301.514612,19.559 C298.729137,13.3843333 294.958107,8.09455556 288.393043,5.325 C280.163785,1.85144444 270.57725,5.15633333 266.53232,13.0824444 C262.354107,21.2676667 260.880666,30.0468889 261.273176,39.1524444 C261.445587,43.1723333 262.153572,47.0822222 264.30076,50.6498889 C267.433503,55.8602222 271.774345,59.8055556 276.842736,62.998 C281.864661,66.1611111 287.167825,68.8011111 292.74978,70.8422222 C295.922874,72.0045556 299.174226,72.8931111 302.610216,73.4687778 M330.885602,138.209889 C327.987632,142.876333 325.564097,147.001333 322.91435,150.977222 C320.743929,154.235667 318.262924,157.285111 315.994681,160.481222 C310.91284,167.641 300.492374,164.969222 297.759478,156.952667 C296.562384,153.442444 296.020696,149.841778 296.095285,146.153111 C296.158869,143.021778 296.358181,139.894111 296.509805,136.479222 C295.968117,136.931444 295.513246,137.237 295.147637,137.625667 C293.655854,139.214556 292.194642,140.830333 290.717533,142.431444 C283.362557,150.406444 271.598265,145.747333 268.082795,138.812444 C266.436944,135.567444 265.7473,133.388222 265.387805,129.808333 C265.18727,127.829556 264.98429,126.596333 265.234958,122.109556 C265.485627,117.624 266.25475,114.003778 266.25475,114.003778 C268.244201,105.132889 271.224097,99.6952222 276.968681,93.2137778 C279.014379,90.9037778 281.400008,89.0276667 284.20627,87.7027778 C288.846691,85.5113333 293.44676,85.3988889 298.010147,87.9325556 C298.828181,88.3884444 299.66578,88.8137778 300.832305,89.431 C301.366656,84.7767778 301.86677,80.411 302.395008,75.7995556 C301.59776,75.582 300.791953,75.3387778 299.975142,75.1432222 C289.823686,72.7207778 280.054958,69.3511111 271.206978,63.6567778 C266.395369,60.5621111 262.1658,56.8184444 258.563513,52.3854444 C252.492449,44.9152222 250.04935,36.0895556 251.570478,26.8715556 C253.480449,15.3142222 259.265384,5.97033333 271.023562,1.62166667 C276.655651,-0.462222222 282.356216,-0.304555556 287.976077,1.48111111 C296.551379,4.20544444 302.714151,9.99266667 307.146701,17.6156667 C312.056132,26.0526667 314.307255,35.3061111 315.16931,44.991 C316.030142,54.682 315.18276,64.3326667 314.945543,73.9992222 C314.93576,74.4257778 314.94432,74.856 314.94432,75.5013333 C318.034265,76.132 321.070409,75.7274444 324.069869,75.4304444 C331.596033,74.6873333 338.459453,72.0974444 344.72127,67.8355556 C347.493295,65.9496667 349.452176,63.4966667 350.676171,60.4117778 C351.286335,58.8717778 351.806013,57.2877778 352.536008,55.8076667 C353.065468,54.7333333 353.742884,53.6602222 354.591488,52.8278889 C356.17131,51.2756667 358.154647,51.1118889 359.57184,52.1776667 C361.149216,53.3656667 361.734924,55.7783333 360.596523,57.5811111 C359.679444,59.0355556 358.598513,60.5193333 357.251018,61.5423333 C353.369939,64.4891111 349.496196,67.5165556 345.293528,69.9487778 C337.515473,74.4502222 329.198176,77.5167778 320.018825,77.5082222 C318.29227,77.5082222 316.568161,77.5082222 314.560369,77.5082222 C314.056587,82.2968889 313.521013,87.0378889 313.064919,91.7862222 C312.080587,102.024778 311.01433,112.257222 310.219528,122.509222 C309.621592,130.239778 309.330572,137.997222 309.032216,145.747333 C308.939285,148.175889 309.235196,150.622778 309.417389,153.055 C309.480973,153.917889 309.637488,154.799111 309.919949,155.614333 C310.499543,157.29 311.850706,157.941444 313.441533,157.187333 C314.44176,156.713111 315.385741,155.995667 316.165869,155.201222 C321.519166,149.737889 325.814765,143.525333 329.214072,136.649111" id="Fill-4"></path>
                    <path d="M52.0734693,120.796767 C52.359598,120.876211 52.4549743,120.938544 52.5161129,120.915322 C61.7333703,117.430767 68.3620188,111.555544 70.2585386,101.440433 C70.7769941,98.6659889 70.6229248,95.8744333 69.4282762,93.2332111 C68.3901426,90.9366556 66.6672564,89.7645444 64.0823158,89.7975444 C61.0950832,89.8366556 58.4673455,90.8095444 56.0022366,92.4326556 C54.6388455,93.3309889 54.0127861,94.4786556 53.9259693,96.1029889 C53.7523356,99.3211 53.4368604,102.531878 53.1935287,105.746322 C52.8120238,110.776989 52.4451921,115.808878 52.0734693,120.796767 M55.9594396,70.9081 C60.6426574,71.9494333 64.8526624,72.5006556 69.1299198,71.6304333 C75.9811129,70.2346556 81.1742267,66.6975444 83.8313109,60.0022111 C84.5698653,58.1407667 85.3279842,56.2732111 85.8611129,54.3469889 C86.8307713,50.8489889 86.8136525,47.2825444 86.1374594,43.7234333 C85.5945485,40.8561 83.8533208,38.9799889 81.0360535,38.4055444 C79.0979594,38.0095444 77.0632663,37.9252111 75.0762614,37.9557667 C71.0680139,38.0168778 67.823999,39.7671 65.4530436,42.9693222 C64.2657317,44.5741 63.0686376,46.2497667 62.3019594,48.0721 C60.7514842,51.7595444 59.248697,55.5032111 58.1775485,59.3507667 C57.1577564,63.0125444 56.7138901,66.8368778 55.9594396,70.9081 M71.8236871,153.783322 C66.0852168,153.841989 61.7688307,151.298544 58.8305089,146.4231 C56.8716277,143.168322 55.8322713,139.577433 55.1707515,135.854544 C54.6058307,132.680433 53.7621178,129.5931 51.7494347,126.840656 C50.9913158,129.303433 51.162504,131.854211 50.9032762,134.348767 C50.6354891,136.950878 50.4141673,139.5591 50.1121426,142.157544 C49.808895,144.755989 49.4237218,147.344656 49.094796,149.939433 C48.7683158,152.534211 48.4895238,155.1351 48.1434792,157.726211 C47.8023257,160.274544 48.3036624,162.948767 47.1114594,165.383433 C39.338296,163.146767 35.2958109,157.820322 35.5403653,149.989544 C35.5403653,149.989544 37.3439545,127.335656 38.7049,111.565322 C40.0646228,95.7937667 44.3920139,67.7376556 44.3920139,67.7376556 C44.0875436,67.5323222 43.5336277,67.1363222 42.957702,66.7708778 C32.9370832,60.4238778 26.0296426,51.8072111 23.5743158,40.0042111 C23.186697,38.1403222 22.977603,36.1982111 23.0216228,34.2988778 C23.0521921,33.0546556 23.460598,31.6869889 24.1062218,30.6199889 C25.2348406,28.7524333 27.5287614,28.9357667 28.4568455,30.9341 C28.8689198,31.8226556 28.8774792,32.9336556 28.9080485,33.9493222 C28.9251673,34.5323222 28.6402614,35.1324333 28.4531772,35.7129889 C26.6043455,41.3902111 27.4688455,46.7423222 30.484202,51.7852111 C33.9703257,57.6225444 38.9188851,61.9027667 45.014405,65.2382111 C46.0941129,62.0787667 47.0295337,59.0268778 48.1777168,56.0544333 C51.4425188,47.5929889 56.8459495,40.9673222 65.1583554,37.0122111 C73.3179149,33.1292111 81.5153802,33.8662111 89.4193802,37.6086556 C95.3632762,40.4234333 97.6926574,46.0762111 96.2363356,52.4941 C93.6660683,63.8228778 83.1037614,73.1655444 71.3651475,74.5857667 C66.1977119,75.2127667 61.1024198,75.1064333 55.7625733,73.4209889 C55.2575683,79.2754333 54.7195485,84.9074333 54.5984941,91.0258778 C55.6928752,90.3084333 56.408197,89.8659889 57.0978406,89.3868778 C59.4859149,87.7283222 62.0488455,86.4877667 64.902796,85.8277667 C71.9643059,84.1924333 79.0588307,88.6755444 80.5909644,95.7509889 C81.328296,99.1524333 80.1825584,102.165211 78.5574941,104.981211 C75.8930733,109.593878 72.1342713,113.277656 67.6931624,116.132767 C64.4063505,118.244767 60.8297416,119.908211 57.369296,121.748878 C56.6344099,122.139989 55.8469446,122.429656 54.5202366,123.0151 C60.3467465,124.150544 62.8118554,127.873433 64.3378752,132.509322 C65.0996624,134.827878 65.778301,137.184322 66.7100535,139.434433 C67.4363802,141.190767 68.333895,142.928767 69.4441723,144.466322 C71.4103901,147.191878 74.2252119,148.440989 77.6012861,148.354211" id="Fill-6"></path>
                    <path d="M268.638423,135.629411 C268.638423,135.629411 266.80671,147.312633 258.847685,152.075633 C255.966834,153.571633 253.208259,152.667189 251.861987,149.709411 C251.152779,148.151078 250.613537,146.393522 250.534056,144.701967 C250.356754,140.965633 250.693017,137.958967 251.161339,134.2703 C252.616438,122.770411 252.108987,126.848967 253.745056,115.3723 C254.802754,107.949744 255.752849,103.670744 255.570655,96.1406333 C255.52419,94.2449667 255.269853,92.2979667 254.746507,90.4805222 C253.654571,86.6904111 250.177007,84.2141889 246.238457,84.4268556 C243.888289,84.5539667 241.62616,85.1846333 239.631819,86.6366333 C235.467056,89.6714111 232.301299,93.5739667 229.552507,97.8651889 C229.046279,98.6535222 228.505814,99.4198556 227.742804,100.547967 C227.41021,99.4320778 227.183997,98.7146333 226.985908,97.9910778 C226.284037,95.4403 225.270358,93.0374111 223.497339,91.0378556 C220.276556,87.4029667 215.914928,87.1023 212.443477,90.4511889 C210.764611,92.0718556 209.231254,93.9247444 207.987695,95.8961889 C206.060606,98.9517444 204.791368,102.309189 205.035923,106.0333 L206.627972,108.305411 C206.899428,99.1277444 211.034844,95.5869667 211.034844,95.5869667 C211.574086,94.8291889 212.624448,94.1141889 213.517071,94.0090778 C214.666477,93.8746333 215.280309,94.9783 215.523641,96.0660778 C215.847675,97.5107444 215.96017,97.7380778 215.991962,99.1961889 C216.07022,102.941078 216.146032,106.7043 215.859903,110.430856 C214.920814,122.686078 213.826433,128.817967 212.772403,141.063411 C212.756507,145.804411 213.016957,147.361522 213.016957,147.361522 C215.025972,152.2553 218.514542,154.968633 222.423745,157.206522 C223.060809,157.573189 224.105056,157.558522 224.822824,157.3153 C225.156641,157.200411 225.36818,156.088189 225.283809,155.477078 C224.411972,149.103189 224.866844,142.723189 225.639636,136.425078 C227.153428,124.112411 228.105967,117.897411 228.14265,105.495522 C228.146319,104.429744 228.421443,103.167189 229.031606,102.334856 C231.45025,99.0373 234.022962,95.8485222 236.611571,92.6793 C237.203393,91.9557444 238.026319,91.3703 238.843131,90.8899667 C241.787566,89.1580778 244.105943,90.2238556 244.301586,93.6216333 C244.487448,96.8275222 244.51924,100.103078 244.081487,103.2723 C242.819586,112.4243 241.129715,117.849744 239.909388,127.004189 C238.770987,135.553633 239.494868,130.570633 238.783215,139.164078 C238.374809,144.087189 239.136596,154.797522 241.503883,159.285522 C245.788477,163.907967 255.672146,159.444411 260.947185,154.193744 C267.081834,148.089967 267.958561,144.466078 271.903225,134.610078 L268.638423,135.629411 Z" id="Fill-8"></path>
                    <path d="M433.489402,138.073856 C433.489402,138.073856 431.657689,149.757078 423.698664,154.520078 C420.817813,156.016078 418.059239,155.111633 416.712966,152.153856 C416.003758,150.595522 415.464516,148.837967 415.385036,147.146411 C415.207734,143.410078 415.543996,140.403411 416.011095,136.714744 C417.467417,125.214856 416.959966,129.293411 418.596036,117.816744 C419.653734,110.394189 420.603828,106.115189 420.421635,98.5850778 C420.375169,96.6894111 420.120833,94.7424111 419.597486,92.9249667 C418.50555,89.1348556 415.027986,86.6586333 411.089437,86.8713 C408.739268,86.9984111 406.47714,87.6290778 404.482798,89.0810778 C400.318036,92.1158556 397.152278,96.0184111 394.403486,100.309633 C393.897258,101.097967 393.356793,101.8643 392.593783,102.992411 C392.261189,101.876522 392.034976,101.159078 391.836887,100.435522 C391.135016,97.8847444 390.121338,95.4818556 388.348318,93.4823 C385.127536,89.8474111 380.765907,89.5467444 377.294456,92.8956333 C375.61559,94.5163 374.082234,96.3691889 372.838674,98.3406333 C370.911585,101.396189 369.642348,104.753633 369.886902,108.477744 L371.478951,110.749856 C371.750407,101.572189 375.885823,98.0314111 375.885823,98.0314111 C376.425065,97.2736333 377.475427,96.5586333 378.36805,96.4535222 C379.517456,96.3190778 380.131288,97.4227444 380.37462,98.5105222 C380.697432,99.9551889 380.81115,100.182522 380.842942,101.640633 C380.921199,105.385522 380.997011,109.148744 380.710882,112.8753 C379.771793,125.130522 378.677412,131.262411 377.623382,143.507856 C377.607486,148.248856 377.867937,149.805967 377.867937,149.805967 C379.876951,154.699744 383.365521,157.413078 387.274724,159.650967 C387.911788,160.017633 388.956036,160.002967 389.673803,159.759744 C390.00762,159.644856 390.219159,158.532633 390.134788,157.921522 C389.262951,151.547633 389.717823,145.167633 390.490615,138.869522 C392.004407,126.556856 392.956947,120.341856 392.99363,107.939967 C392.997298,106.874189 393.272422,105.611633 393.882585,104.7793 C396.301229,101.481744 398.873942,98.2929667 401.46255,95.1237444 C402.054372,94.4001889 402.877298,93.8147444 403.69411,93.3344111 C406.638546,91.6025222 408.956922,92.6683 409.152565,96.0660778 C409.338427,99.2719667 409.370219,102.547522 408.932466,105.716744 C407.670565,114.868744 405.980694,120.294189 404.760367,129.448633 C403.621966,137.998078 404.345848,133.015078 403.634194,141.608522 C403.225788,146.531633 403.987575,157.241967 406.354862,161.729967 C410.639456,166.352411 420.523125,161.888856 425.798164,156.638189 C431.932813,150.534411 432.809541,146.910522 436.752981,137.054522 L433.489402,138.073856 Z" id="Fill-10"></path>
                    <path d="M202.572893,116.436122 C203.350576,112.790233 203.765096,109.288567 202.997195,105.730678 C202.509308,103.470789 201.263303,101.758456 199.21516,100.697567 C196.544625,99.3140111 193.81662,100.289344 192.911769,103.1579 C192.456898,104.5989 192.373749,106.256233 192.535155,107.770567 C193.135536,113.335344 197.023952,116.707456 202.572893,116.436122 M159.345447,141.709233 C156.00361,126.974122 160.128021,114.115122 169.300036,102.605456 C171.998695,99.2174556 175.100868,96.1472333 178.228719,92.6993444 C178.907358,93.2310111 179.719279,93.7015667 180.324551,94.3640111 C184.045447,98.4437889 184.276551,103.118789 182.409378,108.032122 C181.761308,109.734678 180.84912,111.349233 179.9406,112.933233 C176.212368,119.431789 173.576071,126.308011 172.590516,133.763567 C172.039046,137.942344 171.942447,142.116233 173.143209,146.215567 C173.871982,148.705233 175.059294,150.944344 177.382561,152.287567 C180.291536,153.9669 183.313006,154.172233 186.383388,152.620011 C189.382848,151.103233 191.483571,148.688122 193.081734,145.825678 C197.409125,138.067011 200.281417,129.7779 201.91015,121.050011 C201.972511,120.7139 201.970066,120.364344 202.025091,119.687233 C201.049318,119.676233 200.140799,119.655456 199.233501,119.656678 C196.297625,119.659122 193.506036,119.023567 190.938214,117.603344 C187.324922,115.606233 185.494432,112.523789 185.701081,108.367011 C185.907729,104.196789 187.738219,101.066678 191.675546,99.2944556 C199.44015,95.8013444 207.430967,99.7711222 209.207655,108.103011 C209.954769,111.601011 210.092942,115.443678 209.584269,119.060233 C208.028902,130.120122 204.100135,140.111789 196.174125,148.262789 C193.032823,151.4919 189.382848,153.987678 185.358704,155.970122 C174.727922,161.203678 166.256556,155.960344 161.739635,148.210233 C161.304328,147.462233 160.948501,146.670233 160.4276,145.649678" id="Fill-12"></path>
                    <path d="M364.052322,112.025244 C364.938832,108.4038 365.456064,104.9168 364.794545,101.336911 C364.375134,99.0648 363.180485,97.3158 361.165356,96.1938 C358.536396,94.7320222 355.780267,95.6254667 354.791045,98.4659111 C354.293376,99.8922444 354.160094,101.547133 354.27748,103.065133 C354.711564,108.644578 358.49849,112.131578 364.052322,112.025244 M320.091213,136.001578 C317.189574,121.173578 321.69549,108.442911 331.20499,97.2119111 C334.003916,93.9045778 337.196574,90.9284667 340.425916,87.5746889 C341.088658,88.1259111 341.885906,88.6221333 342.471614,89.3016889 C346.06901,93.4902444 346.160718,98.1701333 344.148035,103.026022 C343.449832,104.7078 342.489955,106.295467 341.533748,107.851356 C337.61354,114.236244 334.774262,121.030578 333.568609,128.453133 C332.892416,132.6148 332.671094,136.7838 333.749579,140.917356 C334.403762,143.426578 335.522599,145.701133 337.806738,147.1128 C340.664356,148.876467 343.677267,149.173467 346.792891,147.711689 C349.836371,146.284133 352.008015,143.932578 353.69055,141.120244 C358.247822,133.492356 361.365891,125.292467 363.252629,116.618356 C363.324772,116.283467 363.333332,115.933911 363.409144,115.259244 C362.433371,115.218911 361.526074,115.171244 360.617554,115.145578 C357.684124,115.060022 354.912099,114.342578 352.388297,112.846578 C348.836144,110.741911 347.098584,107.606911 347.42751,103.458689 C347.758881,99.2958 349.681079,96.2206889 353.670985,94.5670222 C361.534634,91.3061333 369.404396,95.5118 370.932861,103.8938 C371.292356,105.848133 371.401183,107.848911 371.645738,110.012244 L370.982995,114.857133 C369.098703,125.865689 364.874025,135.735133 356.708351,143.6478 C353.474119,146.781578 349.750777,149.168578 345.669163,151.030022 C334.886757,155.9458 326.576797,150.451911 322.292203,142.571022 C321.878906,141.8108 321.546312,141.009022 321.05598,139.972578" id="Fill-14"></path>
                    <path d="M101.953407,124.090533 C102.276219,123.773978 102.454744,123.677422 102.509769,123.5332 C105.374724,116.142422 106.333378,108.417978 106.46666,100.561533 C106.492338,98.9689778 105.894402,97.5072 104.822031,96.2666444 C103.791234,95.0762 102.520774,94.7828667 101.055893,95.1825333 C99.4797391,95.6139778 98.390249,96.7078667 98.1897144,98.2454222 C97.9133678,100.373311 97.7275064,102.576978 97.976952,104.691422 C98.444051,108.651422 99.1667094,112.590644 99.9468381,116.5042 C100.45062,119.021978 101.252759,121.479867 101.953407,124.090533 M76.2531797,148.671867 C77.943051,148.5582 79.7882144,148.143867 81.2188579,147.287089 C84.574145,145.282644 87.7215609,142.929867 90.9545708,140.720089 C92.1198728,139.924422 91.979254,139.001644 91.554952,137.770867 C90.1084124,133.571311 88.6692094,129.355867 87.522249,125.067089 C85.7101005,118.288644 85.8287094,111.416089 87.2605757,104.577756 C88.150754,100.319533 90.2025658,96.7420889 94.0824223,94.4809778 C96.56465,93.0375333 99.2168431,92.3640889 102.120927,92.9678667 C107.51213,94.0874222 110.367303,97.3507556 110.297605,102.848311 C110.19367,110.819644 108.198105,118.387644 104.637393,125.493644 C103.668957,127.429644 103.712977,128.937867 104.648398,130.832311 C109.856185,141.405756 114.263056,152.327533 118.339779,163.378867 C120.883145,170.275867 122.725863,177.361089 123.102477,184.751867 C123.380046,190.216422 122.807789,195.573422 120.687501,200.661533 C117.835997,207.503533 113.2237,212.818978 106.598719,216.2522 C98.8023233,220.294089 90.6611054,222.926756 81.7091896,221.874422 C72.3415312,220.771978 64.5549173,216.741089 58.8054421,209.163311 C53.1427837,201.700422 52.7783975,191.0512 57.6609272,183.066422 C60.3779272,178.619978 63.944754,175.191644 68.6707688,172.961089 C72.0395064,171.373422 75.5598678,171.0092 79.1328084,171.839089 C80.5231005,172.161756 81.9011649,172.919533 83.0505708,173.788533 C84.4579817,174.853089 84.6169421,176.869756 83.6851896,177.990533 C82.7705559,179.088089 81.1503827,179.260422 79.6488183,178.253311 C78.6449223,177.578644 77.7791995,176.693756 76.847447,175.906644 C73.072749,172.715422 68.8272837,173.4402 66.4648876,177.838978 C65.4817787,179.667422 64.7921351,181.674311 64.1514025,183.6592 C62.2805609,189.463533 61.6630609,195.465867 62.2451005,201.493867 C63.455645,214.004533 72.1458876,220.357644 84.1107144,219.614533 C89.8736401,219.256422 95.1535708,217.151756 99.9077094,213.844422 C106.643962,209.158422 109.69111,202.463089 110.297605,194.4942 C110.752477,188.495533 109.731462,182.7462 107.859398,177.012756 C104.030898,165.2782 98.6983876,154.206089 93.5236153,143.054533 C93.4539173,142.9042 93.3022936,142.792978 93.0235015,142.472756 C91.1074173,143.988311 89.3637441,145.425644 87.560155,146.779867 C83.608155,149.754756 79.2819866,152.026867 74.3921203,152.915422" id="Fill-16"></path>
                    <path d="M454.232389,174.720844 C448.950012,178.631956 444.435537,182.413511 442.144062,188.396289 C439.28522,195.859178 436.928938,203.454067 435.415146,211.284844 C434.836775,214.280511 434.526191,217.417956 434.720611,220.451511 C435.007963,224.883289 439.483309,227.260511 443.381507,225.1644 C444.78525,224.410289 446.107067,223.056067 446.870077,221.651733 C447.91677,219.723067 448.630869,217.535289 449.073512,215.3744 C451.106983,205.493956 452.946032,195.576844 453.550082,185.478844 C453.750616,182.0994 453.978052,178.719956 454.232389,174.720844 M430.341864,148.397844 C424.190097,138.659178 423.682646,128.223844 425.048483,117.415733 C425.785814,111.579622 426.815389,105.838844 428.908775,100.327844 C430.388329,96.4301778 432.251834,92.7500667 434.796423,89.4036222 C442.620943,79.1161778 453.371557,79.2054 462.454309,83.8950667 C466.943106,86.2124 469.878983,89.9621778 470.983146,94.9011778 C471.390329,96.7161778 471.408671,98.7450667 471.034502,100.560067 C470.761824,101.893511 469.740809,103.212289 468.734468,104.2194 C467.598512,105.359733 466.045592,105.414733 464.591715,104.554289 C463.117052,103.679178 462.645062,102.329844 462.991106,100.722622 C463.371389,98.9528444 463.90574,97.2185111 464.294582,95.4524 C465.307037,90.8482889 463.947314,87.7365111 460.139601,85.8115111 C456.421151,83.9317333 452.03629,84.5428444 449.418334,87.8660667 C447.471681,90.3361778 445.825829,93.1631778 444.611616,96.0659556 C441.252661,104.093511 440.054344,112.666178 438.909829,121.221733 C438.077121,127.459956 437.407042,133.714067 438.556448,139.988956 C438.823012,141.450733 439.106696,142.930844 439.612923,144.320511 C441.432408,149.347511 446.538705,151.575622 451.536176,149.574844 C452.421463,149.2204 453.259062,148.737622 454.095438,148.269511 C456.471285,146.9434 457.773537,145.191956 457.865245,142.190178 C458.134255,133.572289 458.790884,124.966622 459.2482,116.3524 C459.348468,114.466511 459.246978,112.5684 459.239641,110.738733 C463.587819,109.628956 467.415097,111.008844 469.77627,114.439622 C471.700913,117.234844 472.73171,120.385733 472.790403,123.738289 C472.864993,127.989178 472.789181,132.255956 472.522616,136.499511 C472.040844,144.148178 471.370765,151.784622 470.789948,159.427178 C470.776498,159.614178 470.907334,159.810956 471.025943,160.175178 C471.39522,160.107956 471.829304,160.128733 472.163121,159.9564 C478.706176,156.605067 486.42676,148.282956 493.005275,145.011067 L493.246161,149.562622 C492.377993,149.830289 491.694463,149.942733 491.105087,150.238511 C484.820037,153.386956 478.568002,160.269289 472.260943,163.372511 C470.838859,164.072844 470.281275,165.010289 470.113755,166.550289 C469.328735,173.746733 468.420215,180.930956 467.57528,188.123733 C466.528587,197.031289 465.225111,205.904622 461.297567,214.080067 C459.747092,217.309178 457.662265,220.320733 455.541978,223.227178 C453.616111,225.867178 450.791507,227.469511 447.700339,228.5084 C440.494542,230.932067 433.369448,227.856956 430.119319,220.868289 C427.972131,216.251956 427.82173,211.4034 428.803616,206.485178 C429.725587,201.845622 431.464369,197.501844 433.848775,193.430622 C438.635928,185.250289 444.568819,178.055067 452.421463,172.6174 C454.327765,171.298622 455.290087,169.827067 455.413587,167.424178 C455.659364,162.646511 456.279309,157.885956 456.732958,153.116844 C456.819775,152.196511 456.856458,151.270067 456.913928,150.346067 C456.726844,150.139511 456.538537,149.932956 456.35023,149.725178 C448.662661,155.374289 440.850369,156.372844 432.608884,150.448733" id="Fill-18"></path>
                    <path d="M45.7887866,125.502444 C45.110148,126.784556 44.7861134,128.575111 44.492648,129.276667 C41.8196678,135.659111 39.386351,142.145444 35.5823064,147.998667 C33.0267124,151.930556 29.8585094,155.125444 25.554351,157.099333 C17.6222272,160.735444 9.52380644,158.794556 4.10814802,151.964778 C3.58235594,151.301111 3.07123713,150.627667 2.30333614,149.632778 C1.4229401,147.129667 1.00719752,145.125222 1.00719752,145.125222 C-1.18523317,135.002778 0.708841089,127.949333 1.9034896,117.918556 C2.49531139,112.952667 3.48575693,108.034444 4.07268762,103.067333 C4.74765792,97.3742222 5.17562822,91.6505556 5.73932624,85.6311111 C7.89018267,84.2243333 10.6401975,84.0202222 13.3999946,84.3355556 C17.0780936,84.7572222 19.5199698,87.2187778 19.8415589,91.1726667 C20.1325787,94.7635556 20.205945,98.4204444 19.8672371,102.001556 C18.9257025,111.962667 17.4009054,118.914667 16.4177965,128.872111 C15.8846678,134.270667 15.6254401,139.699778 15.3980045,145.121556 C15.3380886,146.563778 15.6547866,148.103778 16.1512322,149.470222 C16.9472569,151.669 18.7484005,152.833778 21.0606629,152.963333 C24.153054,153.138111 27.1158312,152.520889 29.2300045,150.110667 C31.3967569,147.641778 33.6063064,145.111778 35.2240342,142.282333 C39.0366381,135.628556 42.462846,128.754778 44.782445,121.408 L45.7887866,125.502444 Z" id="Fill-20"></path>
                    <path d="M21.9579332,66.0522111 C22.2856361,70.4241 19.0709678,74.7874333 14.7998243,75.7688778 C10.1251658,76.8444333 5.99097277,73.6532111 5.81489356,68.8352111 C5.57278465,62.1997667 11.5753738,57.8621 17.6818985,60.2613222 C20.3353144,61.3051 21.7476163,63.2129889 21.9579332,66.0522111" id="Fill-23"></path>
                    <path d="M132.95313,129.016944 C133.370096,129.016944 133.46914,129.0475 133.52661,129.012056 C133.796843,128.840944 134.069521,128.667389 134.317744,128.468167 C142.397823,121.957389 147.71566,113.612056 150.466898,103.669278 C151.029373,101.637944 151.02815,99.3780556 150.894868,97.2489444 C150.757917,95.0526111 149.086388,93.9037222 146.871947,94.0552778 C144.905729,94.1885 143.276997,95.0917222 142.225412,96.7038333 C141.272873,98.1668333 140.382695,99.7471667 139.865462,101.402056 C138.215942,106.683278 136.627561,111.987722 135.259279,117.347167 C134.294511,121.137278 133.725922,125.027611 132.95313,129.016944 M117.444709,129.720944 C118.233398,121.783833 120.23263,114.239056 123.952303,107.181944 C126.064031,103.173056 128.745571,99.5565 132.089853,96.4838333 C135.124774,93.6971667 138.607229,91.8235 142.830685,91.5680556 C152.022264,91.0131667 158.027299,98.6373889 155.334754,107.422722 C154.208581,111.097944 152.297388,114.331944 149.889749,117.275056 C145.383833,122.782389 140.253081,127.632167 134.252937,131.491944 C133.09864,132.235056 132.643769,133.0845 132.56918,134.4155 C132.320957,138.761722 132.246368,143.068833 133.436125,147.331944 C134.855764,152.423722 138.164586,155.077167 143.398051,154.976944 C144.75166,154.951278 146.139506,154.804611 147.447873,154.467278 C158.4516,151.624389 166.808026,143.491722 168.730224,130.927278 C168.972333,129.346944 169.298813,127.744611 169.862511,126.258389 C170.207333,125.350278 170.936105,124.4275 171.745581,123.883611 C168.872066,119.723167 167.70065,126.318278 168.055254,128.6955 C168.249675,130.006944 165.982655,134.329944 170.91165,132.774056 C170.248907,134.644056 170.5277,136.573944 169.279249,138.076056 C165.530229,142.583611 165.904398,144.251944 161.841125,148.478389 C157.715492,152.769611 152.771823,155.944944 146.913521,157.382278 C141.930724,158.605722 136.901462,158.735278 131.880759,157.422611 C128.755353,156.606167 126.111719,155.006278 123.855704,152.750056 C116.649907,146.110944 117.444709,129.720944 117.444709,129.720944" id="Fill-25"></path>
                    <path d="M82.365696,146.539333 C82.365696,146.539333 80.3248891,148.782111 75.020503,148.272444 L69.8176069,153.677111 C69.8176069,153.677111 74.7148099,154.696444 80.937498,150.822 L82.365696,146.539333 Z" id="Fill-27"></path>
                </g>
            </g>
            <text id="Best-Selfie-at-Copy" font-family="PTSerif-Bold, PT Serif" font-size="46" font-weight="bold" letter-spacing="-0.5">
                <tspan x="132.377" y="47">Best Selfie at</tspan>
            </text>
        </g>
    </g>
</svg>