<?xml version="1.0" encoding="UTF-8"?>
<svg width="584px" height="194px" viewBox="0 0 584 194" version="1.1" xmlns="http://www.w3.org/2000/svg" xmlns:xlink="http://www.w3.org/1999/xlink">
    <!-- Generator: Sketch 63.1 (92452) - https://sketch.com -->
    <title>Artboard</title>
    <desc>Created with Sketch.</desc>
    <g id="Artboard" stroke="none" stroke-width="1" fill="none" fill-rule="evenodd">
        <path d="M119.080866,119.513098 C142.19278,119.513098 157.320578,135.998753 157.320578,156.256549 C157.320578,176.514345 142.19278,193 119.080866,193 C95.9689531,193 80.5610108,176.514345 80.5610108,156.256549 C80.5610108,135.998753 95.9689531,119.513098 119.080866,119.513098 Z M547.561733,119.513098 C569.553069,119.513098 583,136.697297 583,157.37422 L583,157.37422 L583,163.521414 L535.93574,163.521414 C536.215884,166.874428 539.157401,172.043659 548.962455,172.043659 C554.565343,172.043659 558.767509,169.528898 561.288809,166.315593 L561.288809,166.315593 L582.019495,168.411227 C580.618773,177.911435 569.553069,193 548.822383,193 C526.270758,193 512.123466,175.676091 512.123466,155.837422 C512.123466,136.27817 525.710469,119.513098 547.561733,119.513098 Z M487.750903,119.513098 C496.855596,119.513098 503.158845,122.307277 507.220939,125.380873 L507.220939,125.380873 L507.220939,147.454886 C501.758123,142.704782 496.855596,141.866528 491.953069,141.866528 C485.089531,141.866528 476.965343,146.89605 476.965343,156.256549 C476.965343,165.617048 485.089531,170.64657 491.953069,170.64657 C496.855596,170.64657 501.758123,169.668607 507.220939,164.778794 L507.220939,164.778794 L507.220939,187.132225 C503.158845,190.205821 496.855596,193 487.750903,193 C466.6,193 451.752347,176.095218 451.752347,156.256549 C451.752347,136.697297 466.6,119.513098 487.750903,119.513098 Z M317.14296,119.513098 C327.92852,119.513098 335.632491,124.54262 338.574007,130.270686 L338.574007,130.270686 L339.974729,120.910187 L362.386282,120.910187 L362.386282,191.602911 L339.974729,191.602911 L338.574007,182.242412 C335.632491,187.970478 327.92852,193 317.14296,193 C296.832491,193 282.825271,176.514345 282.825271,156.256549 C282.825271,135.998753 296.832491,119.513098 317.14296,119.513098 Z M419.815884,119.513098 C437.745126,119.513098 445.449097,130.829522 445.449097,149.410811 L445.449097,149.410811 L445.449097,191.602911 L421.636823,191.602911 L421.636823,160.866944 C421.636823,145.918087 417.714801,141.866528 410.01083,141.866528 C403.287365,141.866528 395.303249,145.359252 395.303249,159.469854 L395.303249,159.469854 L395.303249,191.602911 L371.490975,191.602911 L371.490975,120.910187 L393.902527,120.910187 L395.303249,129.432432 C402.306859,123.564657 410.571119,119.513098 419.815884,119.513098 Z M253.690253,119.513098 C268.818051,119.513098 276.522022,130.829522 276.522022,146.756341 L276.522022,146.756341 L276.522022,191.602911 L252.709747,191.602911 L252.709747,155.278586 C252.709747,147.315177 249.908303,141.866528 244.025271,141.866528 C236.181227,141.866528 231.979061,150.947609 231.979061,165.058212 L231.979061,165.058212 L231.979061,191.602911 L208.166787,191.602911 L208.166787,155.278586 C208.166787,147.315177 205.365343,141.866528 199.48231,141.866528 C191.638267,141.866528 187.436101,150.947609 187.436101,165.058212 L187.436101,165.058212 L187.436101,191.602911 L163.623827,191.602911 L163.623827,120.910187 L186.035379,120.910187 L187.296029,128.314761 C193.319134,123.005821 200.602888,119.513098 209.147292,119.513098 C218.672202,119.513098 225.255596,123.983784 228.757401,131.248649 C235.480866,124.402911 243.745126,119.513098 253.690253,119.513098 Z M40.9205776,92.4095634 C60.2505415,92.4095634 78.4599278,105.681913 78.4599278,127.755925 C78.4599278,141.866528 71.0361011,152.484407 60.5306859,158.212474 L60.5306859,158.212474 L79.8606498,191.602911 L53.1068592,191.602911 L36.5783394,163.102287 L24.8122744,163.102287 L24.8122744,191.602911 L1,191.602911 L1,92.4095634 Z M321.345126,141.866528 C312.240433,141.866528 306.637545,148.572557 306.637545,156.256549 C306.637545,163.940541 312.240433,170.64657 321.345126,170.64657 C330.449819,170.64657 335.772563,163.940541 335.772563,156.256549 C335.772563,148.572557 330.449819,141.866528 321.345126,141.866528 Z M119.080866,141.866528 C109.976173,141.866528 104.373285,148.572557 104.373285,156.256549 C104.373285,163.940541 109.976173,170.64657 119.080866,170.64657 C128.18556,170.64657 133.508303,163.940541 133.508303,156.256549 C133.508303,148.572557 128.18556,141.866528 119.080866,141.866528 Z M547.561733,140.469439 C540.558123,140.469439 536.215884,143.822453 535.93574,147.454886 L535.93574,147.454886 L559.187726,147.454886 C558.907581,143.822453 554.565343,140.469439 547.561733,140.469439 Z M40.9205776,114.762994 L24.8122744,114.762994 L24.8122744,140.748857 L40.9205776,140.748857 C48.7646209,140.748857 54.6476534,135.859044 54.6476534,127.755925 C54.6476534,119.652807 48.7646209,114.762994 40.9205776,114.762994 L40.9205776,114.762994 Z M409.310469,24.3513514 C413.412584,24.3513514 417.214544,25.1496881 420.416194,26.6465696 L420.416194,26.6465696 L435.323878,25.3492723 L435.323878,40.3180873 L430.921609,39.2203742 C431.221764,40.5176715 431.321815,41.9147609 431.321815,43.3118503 C431.321815,54.6881497 421.716864,62.2723493 409.310469,62.2723493 C407.309438,62.2723493 405.408458,62.0727651 403.507478,61.6735967 C403.407427,61.972973 403.307375,62.2723493 403.307375,62.6715177 C403.307375,64.7172557 405.913574,64.8567379 409.506969,64.866248 L409.506969,64.866248 L410.310985,64.8669439 C427.619907,64.8669439 434.323363,73.5488565 434.323363,82.3305613 C434.323363,93.8066528 422.117071,99.7941788 410.811243,99.7941788 C399.505415,99.7941788 387.299123,93.8066528 387.299123,82.3305613 C387.299123,77.6403326 389.100052,75.1455301 391.601341,73.3492723 C389.100052,71.2536383 387.299123,68.6590437 387.299123,65.8648649 C387.299123,61.7733888 390.400722,58.8794179 393.702424,57.0831601 C389.700361,53.7900208 387.299123,49 387.299123,43.3118503 C387.299123,31.8357588 396.904074,24.3513514 409.310469,24.3513514 Z M405.808664,78.8378378 C404.507994,79.5363825 403.307375,80.5343035 403.307375,81.9313929 C403.307375,84.3264033 405.808664,85.8232848 410.811243,85.8232848 C415.71377,85.8232848 418.315111,84.9251559 418.315111,82.6299376 C418.315111,79.7359667 414.313048,78.8378378 405.808664,78.8378378 Z M180.592573,24.3513514 C197.101083,24.3513514 207.906653,36.1268191 207.906653,50.5966736 C207.906653,65.0665281 197.101083,76.8419958 180.592573,76.8419958 C164.084064,76.8419958 153.078391,65.0665281 153.078391,50.5966736 C153.078391,36.1268191 164.084064,24.3513514 180.592573,24.3513514 Z M73.7374936,24.3513514 C90.2460031,24.3513514 101.051573,36.1268191 101.051573,50.5966736 C101.051573,65.0665281 90.2460031,76.8419958 73.7374936,76.8419958 C57.228984,76.8419958 46.223311,65.0665281 46.223311,50.5966736 C46.223311,36.1268191 57.228984,24.3513514 73.7374936,24.3513514 Z M360.98556,24.3513514 C373.792161,24.3513514 379.294997,32.4345114 379.294997,45.7068607 L379.294997,45.7068607 L379.294997,75.8440748 L362.28623,75.8440748 L362.28623,53.8898129 C362.28623,43.2120582 359.484786,40.3180873 353.981949,40.3180873 C349.179474,40.3180873 343.476534,42.8128898 343.476534,52.8918919 L343.476534,52.8918919 L343.476534,75.8440748 L326.467767,75.8440748 L326.467767,25.3492723 L342.476019,25.3492723 L343.476534,31.4365904 C348.479113,27.2453222 354.382156,24.3513514 360.98556,24.3513514 Z M317.463125,25.3492723 L317.463125,75.8440748 L300.454358,75.8440748 L300.454358,25.3492723 L317.463125,25.3492723 Z M224.014956,25.3492723 L233.119649,54.0893971 L242.124291,25.3492723 L260.233626,25.3492723 L269.338319,54.0893971 L278.34296,25.3492723 L296.452295,25.3492723 L278.142857,75.8440748 L260.433729,75.8440748 L251.228984,50.2972973 L241.924188,75.8440748 L224.215059,75.8440748 L205.905621,25.3492723 L224.014956,25.3492723 Z M147.075297,1 L147.075297,75.8440748 L130.066529,75.8440748 L130.066529,1 L147.075297,1 Z M123.062919,1 L123.062919,75.8440748 L106.054152,75.8440748 L106.054152,1 L123.062919,1 Z M43.2217638,4.99168399 L43.2217638,20.95842 L18.2088706,20.95842 L18.2088706,33.3326403 L40.2202166,33.3326403 L40.2202166,49.2993763 L18.2088706,49.2993763 L18.2088706,75.8440748 L1.20010315,75.8440748 L1.20010315,4.99168399 L43.2217638,4.99168399 Z M180.592573,40.3180873 C174.089221,40.3180873 170.087158,45.1081081 170.087158,50.5966736 C170.087158,56.0852391 174.089221,60.8752599 180.592573,60.8752599 C187.095926,60.8752599 190.897886,56.0852391 190.897886,50.5966736 C190.897886,45.1081081 187.095926,40.3180873 180.592573,40.3180873 Z M73.7374936,40.3180873 C67.2341413,40.3180873 63.2320784,45.1081081 63.2320784,50.5966736 C63.2320784,56.0852391 67.2341413,60.8752599 73.7374936,60.8752599 C80.2408458,60.8752599 84.0428056,56.0852391 84.0428056,50.5966736 C84.0428056,45.1081081 80.2408458,40.3180873 73.7374936,40.3180873 Z M409.310469,38.3222453 C406.509025,38.3222453 403.307375,39.9189189 403.307375,43.3118503 C403.307375,46.6049896 406.509025,48.3014553 409.310469,48.3014553 C412.211965,48.3014553 415.313564,46.6049896 415.313564,43.3118503 C415.313564,39.9189189 412.211965,38.3222453 409.310469,38.3222453 Z M308.958742,3.99376299 C313.461062,3.99376299 316.962867,7.48648649 316.962867,11.977131 C316.962867,16.4677755 313.461062,19.960499 308.958742,19.960499 C304.456421,19.960499 300.954616,16.4677755 300.954616,11.977131 C300.954616,7.48648649 304.456421,3.99376299 308.958742,3.99376299 Z" id="Combined-Shape" stroke="#FFFFFF" stroke-width="2" fill-rule="nonzero"></path>
    </g>
</svg>