<?xml version="1.0" encoding="UTF-8"?>
<svg width="512px" height="267px" viewBox="0 0 512 267" version="1.1" xmlns="http://www.w3.org/2000/svg" xmlns:xlink="http://www.w3.org/1999/xlink">
    <!-- Generator: Sketch 63.1 (92452) - https://sketch.com -->
    <title>Artboard</title>
    <desc>Created with Sketch.</desc>
    <g id="Artboard" stroke="none" stroke-width="1" fill="none" fill-rule="evenodd">
        <path d="M158.60507,203.808732 C177.457638,203.808732 188.985324,218.585397 188.985324,236.36545 L188.985324,236.36545 L188.985324,241.651411 L148.638426,241.651411 C148.878586,244.534663 151.400267,248.979676 159.805871,248.979676 C164.609073,248.979676 168.211474,246.817237 170.372915,244.054121 L170.372915,244.054121 L188.144763,245.856154 C186.943963,254.025367 177.457638,267 159.685791,267 C140.352902,267 128.224817,252.103199 128.224817,235.043959 C128.224817,218.224991 139.872582,203.808732 158.60507,203.808732 Z M50.412942,205.010087 L50.412942,265.798645 L29.9993329,265.798645 L29.9993329,205.010087 L50.412942,205.010087 Z M22.1941294,175.697027 L22.1941294,265.798645 L1.78052035,265.798645 L1.78052035,175.697027 L22.1941294,175.697027 Z M100.846564,203.808732 C116.216811,203.808732 122.821214,213.539706 122.821214,229.517727 L122.821214,229.517727 L122.821214,265.798645 L102.407605,265.798645 L102.407605,239.368837 C102.407605,226.514339 99.0453636,223.03041 92.4409606,223.03041 C86.6771181,223.03041 79.832555,226.033798 79.832555,238.167482 L79.832555,238.167482 L79.832555,265.798645 L59.418946,265.798645 L59.418946,205.010087 L78.6317545,205.010087 L79.832555,212.338352 C85.8365577,207.292661 92.9212809,203.808732 100.846564,203.808732 Z M160.606404,221.829055 C154.602402,221.829055 150.87992,224.712307 150.63976,227.83583 L150.63976,227.83583 L170.573049,227.83583 C170.332889,224.712307 166.610407,221.829055 160.606404,221.829055 Z M40.2061374,179.301091 C45.6097398,179.301091 49.8125417,183.505834 49.8125417,188.911931 C49.8125417,194.318028 45.6097398,198.52277 40.2061374,198.52277 C34.802535,198.52277 30.5997332,194.318028 30.5997332,188.911931 C30.5997332,183.505834 34.802535,179.301091 40.2061374,179.301091 Z M272.400934,103.695822 C281.647098,103.695822 288.251501,108.0207 290.773182,112.946255 L290.773182,112.946255 L291.973983,104.897177 L311.186791,104.897177 L311.186791,165.685736 L291.973983,165.685736 L290.773182,157.636658 C288.251501,162.562213 281.647098,166.887091 272.400934,166.887091 C254.989326,166.887091 242.981321,152.711103 242.981321,135.291457 C242.981321,117.87181 254.989326,103.695822 272.400934,103.695822 Z M494.308873,103.695822 C502.114076,103.695822 507.517678,106.098532 511,108.741513 L511,108.741513 L511,127.722921 C506.316878,123.638314 502.114076,122.917501 497.911274,122.917501 C492.027352,122.917501 485.062708,127.242379 485.062708,135.291457 C485.062708,143.340534 492.027352,147.665412 497.911274,147.665412 C502.114076,147.665412 506.316878,146.824464 511,142.619721 L511,142.619721 L511,161.8414 C507.517678,164.484381 502.114076,166.887091 494.308873,166.887091 C476.176785,166.887091 463.448299,152.350696 463.448299,135.291457 C463.448299,118.472488 476.176785,103.695822 494.308873,103.695822 Z M102.607738,103.695822 C122.420947,103.695822 135.389593,117.87181 135.389593,135.291457 C135.389593,152.711103 122.420947,166.887091 102.607738,166.887091 C82.7945297,166.887091 69.5857238,152.711103 69.5857238,135.291457 C69.5857238,117.87181 82.7945297,103.695822 102.607738,103.695822 Z M458.044696,104.897177 L458.044696,165.685736 L437.631087,165.685736 L437.631087,104.897177 L458.044696,104.897177 Z M417.457638,86.8768536 L417.457638,104.897177 L432.227485,104.897177 L432.227485,124.118856 L417.457638,124.118856 L417.457638,165.685736 L397.044029,165.685736 L397.044029,124.118856 L386.597065,124.118856 L386.597065,104.897177 L397.044029,104.897177 L397.044029,86.8768536 L417.457638,86.8768536 Z M360.419613,103.695822 C375.78986,103.695822 382.394263,113.426797 382.394263,129.404817 L382.394263,129.404817 L382.394263,165.685736 L361.980654,165.685736 L361.980654,139.255928 C361.980654,126.40143 358.618412,122.917501 352.014009,122.917501 C346.250167,122.917501 339.405604,125.920888 339.405604,138.054573 L339.405604,138.054573 L339.405604,165.685736 L318.991995,165.685736 L318.991995,104.897177 L338.204803,104.897177 L339.405604,112.225442 C345.409606,107.179752 352.49433,103.695822 360.419613,103.695822 Z M35.6030687,80.3895371 C52.1741161,80.3895371 67.784523,91.8024087 67.784523,110.783816 C67.784523,122.917501 61.4202802,132.047798 52.4142762,136.973353 L52.4142762,136.973353 L68.9853235,165.685736 L46.0500334,165.685736 L31.8805871,141.178096 L21.7938626,141.178096 L21.7938626,165.685736 L1.3802535,165.685736 L1.3802535,80.3895371 Z M218.00467,103.695822 C230.973316,103.695822 237.577718,113.426797 237.577718,127.122243 L237.577718,127.122243 L237.577718,165.685736 L217.164109,165.685736 L217.164109,134.450508 C217.164109,127.602785 214.762508,122.917501 209.719146,122.917501 C202.994663,122.917501 199.392262,130.726308 199.392262,142.859992 L199.392262,142.859992 L199.392262,165.685736 L178.978652,165.685736 L178.978652,134.450508 C178.978652,127.602785 176.577051,122.917501 171.533689,122.917501 C164.809206,122.917501 161.206805,130.726308 161.206805,142.859992 L161.206805,142.859992 L161.206805,165.685736 L140.793195,165.685736 L140.793195,104.897177 L160.006004,104.897177 L161.086724,111.264358 C166.250167,106.69921 172.49433,103.695822 179.819213,103.695822 C187.984656,103.695822 193.628419,107.540158 196.63042,113.787204 C202.394263,107.900565 209.478986,103.695822 218.00467,103.695822 Z M276.003336,122.917501 C268.198132,122.917501 263.39493,128.684005 263.39493,135.291457 C263.39493,141.898909 268.198132,147.665412 276.003336,147.665412 C283.808539,147.665412 288.371581,141.898909 288.371581,135.291457 C288.371581,128.684005 283.808539,122.917501 276.003336,122.917501 Z M102.607738,122.917501 C94.802535,122.917501 89.9993329,128.684005 89.9993329,135.291457 C89.9993329,141.898909 94.802535,147.665412 102.607738,147.665412 C110.412942,147.665412 114.975984,141.898909 114.975984,135.291457 C114.975984,128.684005 110.412942,122.917501 102.607738,122.917501 Z M35.6030687,99.6112157 L21.7938626,99.6112157 L21.7938626,121.956417 L35.6030687,121.956417 C42.3275517,121.956417 47.3709139,117.751675 47.3709139,110.783816 C47.3709139,103.815958 42.3275517,99.6112157 35.6030687,99.6112157 L35.6030687,99.6112157 Z M447.837892,79.1881822 C453.241494,79.1881822 457.444296,83.3929244 457.444296,88.7990215 C457.444296,94.2051186 453.241494,98.4098607 447.837892,98.4098607 C442.43429,98.4098607 438.231488,94.2051186 438.231488,88.7990215 C438.231488,83.3929244 442.43429,79.1881822 447.837892,79.1881822 Z M352.028019,21.1467219 C355.556371,21.1467219 358.826551,21.8354987 361.580387,23.1269552 L361.580387,23.1269552 L374.402935,22.0076929 L374.402935,34.9222582 L370.616411,33.9751901 C370.874583,35.0944524 370.96064,36.2998118 370.96064,37.5051712 C370.96064,47.3202409 362.699133,53.8636206 352.028019,53.8636206 C350.306871,53.8636206 348.671781,53.6914264 347.036691,53.347038 C346.950634,53.6053293 346.864576,53.8636206 346.864576,54.208009 C346.864576,55.9526082 349.054748,56.0903397 352.09025,56.1012133 L352.09025,56.1012133 L352.888592,56.1021453 C367.776518,56.1021453 373.542362,63.5925932 373.542362,71.1691381 C373.542362,81.0703049 363.043362,86.236131 353.318879,86.236131 C343.594396,86.236131 333.095397,81.0703049 333.095397,71.1691381 C333.095397,67.1225743 334.64443,64.9701468 336.795864,63.4203989 C334.64443,61.6123598 333.095397,59.3738352 333.095397,56.9631163 C333.095397,53.4331351 335.763175,50.9363192 338.603069,49.3865713 C335.160774,46.545367 333.095397,42.4127061 333.095397,37.5051712 C333.095397,27.6040045 341.356905,21.1467219 352.028019,21.1467219 Z M349.016011,68.1557396 C347.897265,68.7584193 346.864576,69.6193903 346.864576,70.8247497 C346.864576,72.8910802 349.016011,74.1825367 353.318879,74.1825367 C357.53569,74.1825367 359.773182,73.4076628 359.773182,71.4274294 C359.773182,68.9306135 356.330887,68.1557396 349.016011,68.1557396 Z M155.300867,21.1467219 C169.500334,21.1467219 178.79453,31.3061799 178.79453,43.7902597 C178.79453,56.2743395 169.500334,66.4337975 155.300867,66.4337975 C141.101401,66.4337975 131.63509,56.2743395 131.63509,43.7902597 C131.63509,31.3061799 141.101401,21.1467219 155.300867,21.1467219 Z M63.3915944,21.1467219 C77.5910607,21.1467219 86.8852568,31.3061799 86.8852568,43.7902597 C86.8852568,56.2743395 77.5910607,66.4337975 63.3915944,66.4337975 C49.1921281,66.4337975 39.7258172,56.2743395 39.7258172,43.7902597 C39.7258172,31.3061799 49.1921281,21.1467219 63.3915944,21.1467219 Z M310.462308,21.1467219 C321.477652,21.1467219 326.210807,28.1205871 326.210807,39.5715017 L326.210807,39.5715017 L326.210807,65.5728265 L311.581054,65.5728265 L311.581054,46.6314641 C311.581054,37.4190741 309.171448,34.9222582 304.438292,34.9222582 C300.307538,34.9222582 295.402268,37.0746857 295.402268,45.770493 L295.402268,45.770493 L295.402268,65.5728265 L280.772515,65.5728265 L280.772515,22.0076929 L294.541694,22.0076929 L295.402268,27.2596161 C299.705137,23.6435378 304.782522,21.1467219 310.462308,21.1467219 Z M273.027352,22.0076929 L273.027352,65.5728265 L258.397598,65.5728265 L258.397598,22.0076929 L273.027352,22.0076929 Z M192.649767,22.0076929 L200.480987,46.8036583 L208.226151,22.0076929 L223.802535,22.0076929 L231.633756,46.8036583 L239.378919,22.0076929 L254.955304,22.0076929 L239.206805,65.5728265 L223.97465,65.5728265 L216.057372,43.5319684 L208.054036,65.5728265 L192.821881,65.5728265 L177.073382,22.0076929 L192.649767,22.0076929 Z M126.471648,1 L126.471648,65.5728265 L111.841895,65.5728265 L111.841895,1 L126.471648,1 Z M105.817879,1 L105.817879,65.5728265 L91.1881254,65.5728265 L91.1881254,1 L105.817879,1 Z M37.1440961,4.44388408 L37.1440961,18.2194204 L15.6297532,18.2194204 L15.6297532,28.895461 L34.5623749,28.895461 L34.5623749,42.6709974 L15.6297532,42.6709974 L15.6297532,65.5728265 L1,65.5728265 L1,4.44388408 L37.1440961,4.44388408 Z M155.300867,34.9222582 C149.707138,34.9222582 146.264843,39.0549191 146.264843,43.7902597 C146.264843,48.5256003 149.707138,52.6582612 155.300867,52.6582612 C160.894596,52.6582612 164.164777,48.5256003 164.164777,43.7902597 C164.164777,39.0549191 160.894596,34.9222582 155.300867,34.9222582 Z M63.3915944,34.9222582 C57.7978652,34.9222582 54.3555704,39.0549191 54.3555704,43.7902597 C54.3555704,48.5256003 57.7978652,52.6582612 63.3915944,52.6582612 C68.9853235,52.6582612 72.2555037,48.5256003 72.2555037,43.7902597 C72.2555037,39.0549191 68.9853235,34.9222582 63.3915944,34.9222582 Z M352.028019,33.2003161 C349.618412,33.2003161 346.864576,34.5778698 346.864576,37.5051712 C346.864576,40.3463756 349.618412,41.8100263 352.028019,41.8100263 C354.523682,41.8100263 357.191461,40.3463756 357.191461,37.5051712 C357.191461,34.5778698 354.523682,33.2003161 352.028019,33.2003161 Z M265.712475,3.58291306 C269.585057,3.58291306 272.597065,6.59631163 272.597065,10.4706812 C272.597065,14.3450508 269.585057,17.3584494 265.712475,17.3584494 C261.839893,17.3584494 258.827885,14.3450508 258.827885,10.4706812 C258.827885,6.59631163 261.839893,3.58291306 265.712475,3.58291306 Z" id="Combined-Shape" stroke="#FFFFFF" stroke-width="2" fill-rule="nonzero"></path>
    </g>
</svg>