<?xml version="1.0" encoding="UTF-8"?>
<svg width="785px" height="5551px" viewBox="0 0 785 5551" version="1.1" xmlns="http://www.w3.org/2000/svg" xmlns:xlink="http://www.w3.org/1999/xlink">
    <!-- Generator: Sketch 63.1 (92452) - https://sketch.com -->
    <title>Path 4</title>
    <desc>Created with Sketch.</desc>
    <g id="Page-1" stroke="none" stroke-width="1" fill="none" fill-rule="evenodd" stroke-linecap="round" stroke-linejoin="round">
        <g id="Artboard-Copy-5" transform="translate(-431.000000, -741.000000)" stroke="#D5D3CF" stroke-width="12">
            <g id="Group-3" transform="translate(416.000000, 726.000000)">
                <path d="M585.035156,21 L714,21 C758.18278,21 794,56.81722 794,101 L794,265 C794,309.18278 758.18278,345 714,345 L101,345 C56.81722,345 21,380.81722 21,425 L21,709 C21,753.18278 56.81722,789 101,789 L714,789 C758.18278,789 794,824.81722 794,869 L794,1264 C794,1308.18278 758.18278,1344 714,1344 L101,1344 C56.81722,1344 21,1379.81722 21,1424 L21,1651 C21,1695.18278 56.81722,1731 101,1731 L714,1731 C758.18278,1731 794,1766.81722 794,1811 L794,2156 C794,2200.18278 758.18278,2236 714,2236 L101,2236 C56.81722,2236 21,2271.81722 21,2316 L21,2566 C21,2610.18278 56.81722,2646 101,2646 L714,2646 C758.18278,2646 794,2681.81722 794,2726 L794,2932 C794,2976.18278 758.18278,3012 714,3012 L101,3012 C56.81722,3012 21,3047.81722 21,3092 L21,3454 C21,3498.18278 56.81722,3534 101,3534 L714,3534 C758.18278,3534 794,3569.81722 794,3614 L794,3894 C794,3938.18278 758.18278,3974 714,3974 L101,3974 C56.81722,3974 21,4009.81722 21,4054 L21,4268 C21,4312.18278 56.81722,4348 101,4348 L714,4348 C758.18278,4348 794,4383.81722 794,4428 L794,4704 C794,4748.18278 758.18278,4784 714,4784 L101,4784 C56.81722,4784 21,4819.81722 21,4864 L21,5159 C21,5203.18278 56.81722,5239 101,5239 L304,5239 C348.18278,5239 384,5274.81722 384,5319 L384,5560 L384,5560" id="Path-4"></path>
            </g>
        </g>
    </g>
</svg>