<?xml version="1.0" encoding="UTF-8"?>
<svg width="787px" height="2413px" viewBox="0 0 787 2413" version="1.1" xmlns="http://www.w3.org/2000/svg" xmlns:xlink="http://www.w3.org/1999/xlink">
    <!-- Generator: Sketch 63.1 (92452) - https://sketch.com -->
    <title>Path 4</title>
    <desc>Created with Sketch.</desc>
    <g id="Page-1" stroke="none" stroke-width="1" fill="none" fill-rule="evenodd" stroke-linecap="round" stroke-linejoin="round">
        <g id="Artboard-Copy-5" transform="translate(-430.000000, -741.000000)" stroke="#ADADAC" stroke-width="12">
            <g id="Group-3" transform="translate(416.000000, 726.000000)">
                <path d="M585.035156,21 L714.050781,21 C758.233561,21 794.050781,56.81722 794.050781,101 L794.050781,264.851562 C794.050781,309.034342 758.233561,344.851562 714.050781,344.851563 L100.828125,344.851563 C56.645345,344.851563 20.828125,380.668783 20.828125,424.851563 L20.828125,708.664063 C20.828125,752.846842 56.645345,788.664063 100.828125,788.664063 L714.050781,788.664063 C758.233561,788.664063 794.050781,824.481283 794.050781,868.664063 L794.050781,1264.34375 C794.050781,1308.52653 758.233561,1344.34375 714.050781,1344.34375 L100.828125,1344.34375 C56.645345,1344.34375 20.828125,1380.16097 20.828125,1424.34375 L20.828125,1651.22266 C20.828125,1695.40544 56.645345,1731.22266 100.828125,1731.22266 L714.050781,1731.22266 C758.233561,1731.22266 794.050781,1767.03988 794.050781,1811.22266 L794.050781,2156.71484 C794.050781,2200.89762 758.233561,2236.71484 714.050781,2236.71484 L100.828125,2236.71484 C56.645345,2236.71484 20.828125,2272.53206 20.828125,2316.71484 L20.828125,2421.24219 L20.828125,2421.24219" id="Path-4"></path>
            </g>
        </g>
    </g>
</svg>