<?xml version="1.0" encoding="UTF-8"?>
<svg width="785px" height="5551px" viewBox="0 0 785 5551" version="1.1" xmlns="http://www.w3.org/2000/svg" xmlns:xlink="http://www.w3.org/1999/xlink">
    <!-- Generator: Sketch 63.1 (92452) - https://sketch.com -->
    <title>Path 4</title>
    <desc>Created with Sketch.</desc>
    <g id="Page-1" stroke="none" stroke-width="1" fill="none" fill-rule="evenodd" stroke-linecap="round" stroke-linejoin="round">
        <g id="Artboard" stroke="#D5D3CF" stroke-width="12">
            <path d="M570.035156,6 L699,6 C743.18278,6 779,41.81722 779,86 L779,250 C779,294.18278 743.18278,330 699,330 L86,330 C41.81722,330 6,365.81722 6,410 L6,694 C6,738.18278 41.81722,774 86,774 L699,774 C743.18278,774 779,809.81722 779,854 L779,1249 C779,1293.18278 743.18278,1329 699,1329 L86,1329 C41.81722,1329 6,1364.81722 6,1409 L6,1636 C6,1680.18278 41.81722,1716 86,1716 L699,1716 C743.18278,1716 779,1751.81722 779,1796 L779,2141 C779,2185.18278 743.18278,2221 699,2221 L86,2221 C41.81722,2221 6,2256.81722 6,2301 L6,2551 C6,2595.18278 41.81722,2631 86,2631 L699,2631 C743.18278,2631 779,2666.81722 779,2711 L779,2917 C779,2961.18278 743.18278,2997 699,2997 L86,2997 C41.81722,2997 6,3032.81722 6,3077 L6,3439 C6,3483.18278 41.81722,3519 86,3519 L699,3519 C743.18278,3519 779,3554.81722 779,3599 L779,3879 C779,3923.18278 743.18278,3959 699,3959 L86,3959 C41.81722,3959 6,3994.81722 6,4039 L6,4253 C6,4297.18278 41.81722,4333 86,4333 L699,4333 C743.18278,4333 779,4368.81722 779,4413 L779,4689 C779,4733.18278 743.18278,4769 699,4769 L86,4769 C41.81722,4769 6,4804.81722 6,4849 L6,5144 C6,5188.18278 41.81722,5224 86,5224 L289,5224 C333.18278,5224 369,5259.81722 369,5304 L369,5545 L369,5545" id="Path-4"></path>
        </g>
    </g>
</svg>