{
    "asset" : {
        "generator" : "Khronos glTF Blender I/O v1.0.5",
        "version" : "2.0"
    },
    "scene" : 0,
    "scenes" : [
        {
            "name" : "Scene",
            "nodes" : [
                0,
                1
            ]
        }
    ],
    "nodes" : [
        {
            "mesh" : 0,
            "name" : "pillar",
            "scale" : [
                0.7040501236915588,
                0.7040501236915588,
                0.7040501236915588
            ]
        },
        {
            "mesh" : 1,
            "name" : "ground",
            "scale" : [
                200,
                1,
                200
            ]
        }
    ],
    "meshes" : [
        {
            "name" : "Cube.001",
            "primitives" : [
                {
                    "attributes" : {
                        "POSITION" : 0,
                        "NORMAL" : 1,
                        "TEXCOORD_0" : 2
                    },
                    "indices" : 3
                }
            ]
        },
        {
            "name" : "Plane",
            "primitives" : [
                {
                    "attributes" : {
                        "POSITION" : 4,
                        "NORMAL" : 5,
                        "TEXCOORD_0" : 6
                    },
                    "indices" : 7
                }
            ]
        }
    ],
    "accessors" : [
        {
            "bufferView" : 0,
            "componentType" : 5126,
            "count" : 232,
            "max" : [
                9.998270988464355,
                16.07089614868164,
                1
            ],
            "min" : [
                -9.998270988464355,
                -0.0043558478355407715,
                -1
            ],
            "type" : "VEC3"
        },
        {
            "bufferView" : 1,
            "componentType" : 5126,
            "count" : 232,
            "type" : "VEC3"
        },
        {
            "bufferView" : 2,
            "componentType" : 5126,
            "count" : 232,
            "type" : "VEC2"
        },
        {
            "bufferView" : 3,
            "componentType" : 5123,
            "count" : 456,
            "type" : "SCALAR"
        },
        {
            "bufferView" : 4,
            "componentType" : 5126,
            "count" : 1641,
            "max" : [
                1,
                6.315467834472656,
                1
            ],
            "min" : [
                -1,
                -3.8122520446777344,
                -1
            ],
            "type" : "VEC3"
        },
        {
            "bufferView" : 5,
            "componentType" : 5126,
            "count" : 1641,
            "type" : "VEC3"
        },
        {
            "bufferView" : 6,
            "componentType" : 5126,
            "count" : 1641,
            "type" : "VEC2"
        },
        {
            "bufferView" : 7,
            "componentType" : 5123,
            "count" : 6144,
            "type" : "SCALAR"
        }
    ],
    "bufferViews" : [
        {
            "buffer" : 0,
            "byteLength" : 2784,
            "byteOffset" : 0
        },
        {
            "buffer" : 0,
            "byteLength" : 2784,
            "byteOffset" : 2784
        },
        {
            "buffer" : 0,
            "byteLength" : 1856,
            "byteOffset" : 5568
        },
        {
            "buffer" : 0,
            "byteLength" : 912,
            "byteOffset" : 7424
        },
        {
            "buffer" : 0,
            "byteLength" : 19692,
            "byteOffset" : 8336
        },
        {
            "buffer" : 0,
            "byteLength" : 19692,
            "byteOffset" : 28028
        },
        {
            "buffer" : 0,
            "byteLength" : 13128,
            "byteOffset" : 47720
        },
        {
            "buffer" : 0,
            "byteLength" : 12288,
            "byteOffset" : 60848
        }
    ],
    "buffers" : [
        {
            "byteLength" : 73136,
            "uri" : "ground_scene.bin"
        }
    ]
}
