{
    "asset" : {
        "generator" : "Khronos glTF Blender I/O v1.1.45",
        "version" : "2.0"
    },
    "scene" : 0,
    "scenes" : [
        {
            "name" : "Scene",
            "nodes" : [
                0,
                1,
                2,
                3,
                4
            ]
        }
    ],
    "nodes" : [
        {
            "mesh" : 0,
            "name" : "Cube",
            "scale" : [
                3.495671272277832,
                2,
                2
            ],
            "translation" : [
                -0.6930453777313232,
                2.278200626373291,
                0
            ]
        },
        {
            "mesh" : 1,
            "name" : "Cube.002",
            "scale" : [
                3.6774706840515137,
                -0.14222145080566406,
                2.163703203201294
            ],
            "translation" : [
                -0.6930453777313232,
                0.14470280706882477,
                0
            ]
        },
        {
            "mesh" : 2,
            "name" : "Cylinder",
            "rotation" : [
                0.5980608463287354,
                0.2807562053203583,
                -0.2355823963880539,
                0.7127412557601929
            ],
            "scale" : [
                1.3372077941894531,
                -0.06282500922679901,
                1.3372079133987427
            ],
            "translation" : [
                4.485576629638672,
                3.5980892181396484,
                -0.4654271602630615
            ]
        },
        {
            "mesh" : 3,
            "name" : "Cylinder.001",
            "scale" : [
                0.07657307386398315,
                1.8262521028518677,
                0.07657307386398315
            ],
            "translation" : [
                4.486695289611816,
                1.8050775527954102,
                -0.5990952253341675
            ]
        },
        {
            "mesh" : 4,
            "name" : "Cylinder.002",
            "scale" : [
                0.4040719270706177,
                1,
                0.4040719270706177
            ],
            "translation" : [
                -2.531977415084839,
                3.3230223655700684,
                0.8682170510292053
            ]
        }
    ],
    "materials" : [
        {
            "doubleSided" : true,
            "emissiveFactor" : [
                0,
                0,
                0
            ],
            "name" : "wall_1",
            "pbrMetallicRoughness" : {
                "baseColorFactor" : [
                    0.800000011920929,
                    0.800000011920929,
                    0.800000011920929,
                    1
                ],
                "metallicFactor" : 0,
                "roughnessFactor" : 1
            }
        },
        {
            "doubleSided" : true,
            "emissiveFactor" : [
                0,
                0,
                0
            ],
            "name" : "base",
            "pbrMetallicRoughness" : {
                "baseColorFactor" : [
                    0.3032018542289734,
                    0.2727794349193573,
                    0.19253124296665192,
                    1
                ],
                "metallicFactor" : 0,
                "roughnessFactor" : 1
            }
        },
        {
            "doubleSided" : true,
            "emissiveFactor" : [
                0,
                0,
                0
            ],
            "name" : "moon_base",
            "pbrMetallicRoughness" : {
                "baseColorFactor" : [
                    0.28101345896720886,
                    0.28101345896720886,
                    0.28101345896720886,
                    1
                ],
                "metallicFactor" : 0,
                "roughnessFactor" : 1
            }
        },
        {
            "doubleSided" : true,
            "emissiveFactor" : [
                0,
                0,
                0
            ],
            "name" : "moon_front",
            "pbrMetallicRoughness" : {
                "baseColorFactor" : [
                    0.7230498194694519,
                    0.6619105339050293,
                    0.08625049889087677,
                    1
                ],
                "metallicFactor" : 0,
                "roughnessFactor" : 1
            }
        },
        {
            "doubleSided" : true,
            "emissiveFactor" : [
                0,
                0,
                0
            ],
            "name" : "tree",
            "pbrMetallicRoughness" : {
                "baseColorFactor" : [
                    0.22168657183647156,
                    0.42002901434898376,
                    0.018425019457936287,
                    1
                ],
                "metallicFactor" : 0,
                "roughnessFactor" : 1
            }
        }
    ],
    "meshes" : [
        {
            "name" : "Cube.001",
            "primitives" : [
                {
                    "attributes" : {
                        "POSITION" : 0,
                        "NORMAL" : 1,
                        "TEXCOORD_0" : 2
                    },
                    "indices" : 3,
                    "material" : 0
                }
            ]
        },
        {
            "name" : "Cube.003",
            "primitives" : [
                {
                    "attributes" : {
                        "POSITION" : 4,
                        "NORMAL" : 5,
                        "TEXCOORD_0" : 6
                    },
                    "indices" : 7,
                    "material" : 1
                }
            ]
        },
        {
            "name" : "Cylinder",
            "primitives" : [
                {
                    "attributes" : {
                        "POSITION" : 8,
                        "NORMAL" : 9,
                        "TEXCOORD_0" : 10
                    },
                    "indices" : 11,
                    "material" : 2
                },
                {
                    "attributes" : {
                        "POSITION" : 12,
                        "NORMAL" : 13,
                        "TEXCOORD_0" : 14
                    },
                    "indices" : 15,
                    "material" : 3
                }
            ]
        },
        {
            "name" : "Cylinder.001",
            "primitives" : [
                {
                    "attributes" : {
                        "POSITION" : 16,
                        "NORMAL" : 17,
                        "TEXCOORD_0" : 18
                    },
                    "indices" : 19
                }
            ]
        },
        {
            "name" : "Cylinder.002",
            "primitives" : [
                {
                    "attributes" : {
                        "POSITION" : 20,
                        "NORMAL" : 21,
                        "TEXCOORD_0" : 22
                    },
                    "indices" : 23,
                    "material" : 4
                }
            ]
        }
    ],
    "accessors" : [
        {
            "bufferView" : 0,
            "componentType" : 5126,
            "count" : 154,
            "max" : [
                1,
                1,
                1
            ],
            "min" : [
                -1,
                -1,
                -1
            ],
            "type" : "VEC3"
        },
        {
            "bufferView" : 1,
            "componentType" : 5126,
            "count" : 154,
            "type" : "VEC3"
        },
        {
            "bufferView" : 2,
            "componentType" : 5126,
            "count" : 154,
            "type" : "VEC2"
        },
        {
            "bufferView" : 3,
            "componentType" : 5123,
            "count" : 312,
            "type" : "SCALAR"
        },
        {
            "bufferView" : 4,
            "componentType" : 5126,
            "count" : 24,
            "max" : [
                1,
                1,
                1
            ],
            "min" : [
                -1,
                -1,
                -1
            ],
            "type" : "VEC3"
        },
        {
            "bufferView" : 5,
            "componentType" : 5126,
            "count" : 24,
            "type" : "VEC3"
        },
        {
            "bufferView" : 6,
            "componentType" : 5126,
            "count" : 24,
            "type" : "VEC2"
        },
        {
            "bufferView" : 7,
            "componentType" : 5123,
            "count" : 36,
            "type" : "SCALAR"
        },
        {
            "bufferView" : 8,
            "componentType" : 5126,
            "count" : 352,
            "max" : [
                1,
                1,
                1
            ],
            "min" : [
                -1,
                -1,
                -1
            ],
            "type" : "VEC3"
        },
        {
            "bufferView" : 9,
            "componentType" : 5126,
            "count" : 352,
            "type" : "VEC3"
        },
        {
            "bufferView" : 10,
            "componentType" : 5126,
            "count" : 352,
            "type" : "VEC2"
        },
        {
            "bufferView" : 11,
            "componentType" : 5123,
            "count" : 666,
            "type" : "SCALAR"
        },
        {
            "bufferView" : 12,
            "componentType" : 5126,
            "count" : 32,
            "max" : [
                0.9538191556930542,
                -0.2266492247581482,
                0.9538191556930542
            ],
            "min" : [
                -0.9538191556930542,
                -0.2266492247581482,
                -0.9538191556930542
            ],
            "type" : "VEC3"
        },
        {
            "bufferView" : 13,
            "componentType" : 5126,
            "count" : 32,
            "type" : "VEC3"
        },
        {
            "bufferView" : 14,
            "componentType" : 5126,
            "count" : 32,
            "type" : "VEC2"
        },
        {
            "bufferView" : 15,
            "componentType" : 5123,
            "count" : 90,
            "type" : "SCALAR"
        },
        {
            "bufferView" : 16,
            "componentType" : 5126,
            "count" : 72,
            "max" : [
                1,
                1,
                1
            ],
            "min" : [
                -1,
                -1,
                -1
            ],
            "type" : "VEC3"
        },
        {
            "bufferView" : 17,
            "componentType" : 5126,
            "count" : 72,
            "type" : "VEC3"
        },
        {
            "bufferView" : 18,
            "componentType" : 5126,
            "count" : 72,
            "type" : "VEC2"
        },
        {
            "bufferView" : 19,
            "componentType" : 5123,
            "count" : 132,
            "type" : "SCALAR"
        },
        {
            "bufferView" : 20,
            "componentType" : 5126,
            "count" : 504,
            "max" : [
                7.068001747131348,
                0.5584949254989624,
                1
            ],
            "min" : [
                -1,
                -1,
                -1
            ],
            "type" : "VEC3"
        },
        {
            "bufferView" : 21,
            "componentType" : 5126,
            "count" : 504,
            "type" : "VEC3"
        },
        {
            "bufferView" : 22,
            "componentType" : 5126,
            "count" : 504,
            "type" : "VEC2"
        },
        {
            "bufferView" : 23,
            "componentType" : 5123,
            "count" : 828,
            "type" : "SCALAR"
        }
    ],
    "bufferViews" : [
        {
            "buffer" : 0,
            "byteLength" : 1848,
            "byteOffset" : 0
        },
        {
            "buffer" : 0,
            "byteLength" : 1848,
            "byteOffset" : 1848
        },
        {
            "buffer" : 0,
            "byteLength" : 1232,
            "byteOffset" : 3696
        },
        {
            "buffer" : 0,
            "byteLength" : 624,
            "byteOffset" : 4928
        },
        {
            "buffer" : 0,
            "byteLength" : 288,
            "byteOffset" : 5552
        },
        {
            "buffer" : 0,
            "byteLength" : 288,
            "byteOffset" : 5840
        },
        {
            "buffer" : 0,
            "byteLength" : 192,
            "byteOffset" : 6128
        },
        {
            "buffer" : 0,
            "byteLength" : 72,
            "byteOffset" : 6320
        },
        {
            "buffer" : 0,
            "byteLength" : 4224,
            "byteOffset" : 6392
        },
        {
            "buffer" : 0,
            "byteLength" : 4224,
            "byteOffset" : 10616
        },
        {
            "buffer" : 0,
            "byteLength" : 2816,
            "byteOffset" : 14840
        },
        {
            "buffer" : 0,
            "byteLength" : 1332,
            "byteOffset" : 17656
        },
        {
            "buffer" : 0,
            "byteLength" : 384,
            "byteOffset" : 18988
        },
        {
            "buffer" : 0,
            "byteLength" : 384,
            "byteOffset" : 19372
        },
        {
            "buffer" : 0,
            "byteLength" : 256,
            "byteOffset" : 19756
        },
        {
            "buffer" : 0,
            "byteLength" : 180,
            "byteOffset" : 20012
        },
        {
            "buffer" : 0,
            "byteLength" : 864,
            "byteOffset" : 20192
        },
        {
            "buffer" : 0,
            "byteLength" : 864,
            "byteOffset" : 21056
        },
        {
            "buffer" : 0,
            "byteLength" : 576,
            "byteOffset" : 21920
        },
        {
            "buffer" : 0,
            "byteLength" : 264,
            "byteOffset" : 22496
        },
        {
            "buffer" : 0,
            "byteLength" : 6048,
            "byteOffset" : 22760
        },
        {
            "buffer" : 0,
            "byteLength" : 6048,
            "byteOffset" : 28808
        },
        {
            "buffer" : 0,
            "byteLength" : 4032,
            "byteOffset" : 34856
        },
        {
            "buffer" : 0,
            "byteLength" : 1656,
            "byteOffset" : 38888
        }
    ],
    "buffers" : [
        {
            "byteLength" : 40544,
            "uri" : "data:application/octet-stream;base64,"
        }
    ]
}
